<?xml version="1.0" encoding="UTF-8"?>
<svg width="600" height="400" viewBox="0 0 600 400" xmlns="http://www.w3.org/2000/svg">
  <style>
    .binary { font: bold 14px monospace; fill: #00ffcc; opacity: 0.7; animation: float 6s linear infinite; }
    .node { fill: #1e90ff; stroke: #003366; stroke-width: 2; }
    .connection { stroke: #3399ff; stroke-width: 1; }
    .shield { fill: #0a0a0a; stroke: #00ccff; stroke-width: 4; }
    .lock-body { fill: #006699; }
    .lock-shackle { fill: #0099cc; }

    @keyframes float {
      0%   { transform: translateY(0); opacity: 0.7; }
      50%  { opacity: 1; }
      100% { transform: translateY(-20px); opacity: 0.7; }
    }
  </style>

  <!-- Background -->
  <rect width="100%" height="100%" fill="#0d1117"/>

  <!-- Binary code animation -->
  <text x="30" y="350" class="binary">101010001101</text>
  <text x="100" y="370" class="binary">110011000101</text>
  <text x="200" y="360" class="binary">111000110010</text>
  <text x="300" y="355" class="binary">100110011011</text>
  <text x="400" y="375" class="binary">011010001111</text>

  <!-- Network nodes -->
  <circle class="node" cx="120" cy="100" r="10"/>
  <circle class="node" cx="200" cy="150" r="10"/>
  <circle class="node" cx="280" cy="100" r="10"/>
  <circle class="node" cx="360" cy="150" r="10"/>
  <circle class="node" cx="440" cy="100" r="10"/>

  <!-- Connections -->
  <line class="connection" x1="120" y1="100" x2="200" y2="150"/>
  <line class="connection" x1="200" y1="150" x2="280" y2="100"/>
  <line class="connection" x1="280" y1="100" x2="360" y2="150"/>
  <line class="connection" x1="360" y1="150" x2="440" y2="100"/>

  <!-- Shield -->
  <path class="shield" d="M300,250 Q270,230 260,190 Q250,150 300,130 Q350,150 340,190 Q330,230 300,250 Z"/>

  <!-- Lock inside shield -->
  <rect x="280" y="170" width="40" height="40" rx="5" ry="5" class="lock-body"/>
  <path class="lock-shackle" d="M290,170 a10,10 0 0,1 20,0" />

</svg>
